G04 EAGLE Gerber RS-274X export*
G75*
%MOMM*%
%FSLAX34Y34*%
%LPD*%
%INTop Paste*%
%IPPOS*%
%AMOC8*
5,1,8,0,0,1.08239X$1,22.5*%
G01*
%ADD10R,1.800000X1.600000*%
%ADD11R,1.600000X1.800000*%
%ADD12R,2.540000X1.270000*%
%ADD13R,1.600000X1.803000*%
%ADD14C,0.150000*%


D10*
X25400Y36800D03*
X25400Y64800D03*
D11*
X135860Y35560D03*
X163860Y35560D03*
X67280Y88900D03*
X95280Y88900D03*
D12*
X25400Y15240D03*
X25400Y88900D03*
X114300Y109220D03*
D13*
X135640Y60960D03*
X164080Y60960D03*
D14*
X65680Y65060D02*
X47480Y65060D01*
X47480Y69560D01*
X65680Y69560D01*
X65680Y65060D01*
X65680Y66485D02*
X47480Y66485D01*
X47480Y67910D02*
X65680Y67910D01*
X65680Y69335D02*
X47480Y69335D01*
X47480Y52360D02*
X65680Y52360D01*
X47480Y52360D02*
X47480Y56860D01*
X65680Y56860D01*
X65680Y52360D01*
X65680Y53785D02*
X47480Y53785D01*
X47480Y55210D02*
X65680Y55210D01*
X65680Y56635D02*
X47480Y56635D01*
X47480Y39660D02*
X65680Y39660D01*
X47480Y39660D02*
X47480Y44160D01*
X65680Y44160D01*
X65680Y39660D01*
X65680Y41085D02*
X47480Y41085D01*
X47480Y42510D02*
X65680Y42510D01*
X65680Y43935D02*
X47480Y43935D01*
X47480Y26960D02*
X65680Y26960D01*
X47480Y26960D02*
X47480Y31460D01*
X65680Y31460D01*
X65680Y26960D01*
X65680Y28385D02*
X47480Y28385D01*
X47480Y29810D02*
X65680Y29810D01*
X65680Y31235D02*
X47480Y31235D01*
X96880Y26960D02*
X115080Y26960D01*
X96880Y26960D02*
X96880Y31460D01*
X115080Y31460D01*
X115080Y26960D01*
X115080Y28385D02*
X96880Y28385D01*
X96880Y29810D02*
X115080Y29810D01*
X115080Y31235D02*
X96880Y31235D01*
X96880Y39660D02*
X115080Y39660D01*
X96880Y39660D02*
X96880Y44160D01*
X115080Y44160D01*
X115080Y39660D01*
X115080Y41085D02*
X96880Y41085D01*
X96880Y42510D02*
X115080Y42510D01*
X115080Y43935D02*
X96880Y43935D01*
X96880Y52360D02*
X115080Y52360D01*
X96880Y52360D02*
X96880Y56860D01*
X115080Y56860D01*
X115080Y52360D01*
X115080Y53785D02*
X96880Y53785D01*
X96880Y55210D02*
X115080Y55210D01*
X115080Y56635D02*
X96880Y56635D01*
X96880Y65060D02*
X115080Y65060D01*
X96880Y65060D02*
X96880Y69560D01*
X115080Y69560D01*
X115080Y65060D01*
X115080Y66485D02*
X96880Y66485D01*
X96880Y67910D02*
X115080Y67910D01*
X115080Y69335D02*
X96880Y69335D01*
D12*
X48260Y109220D03*
X86360Y15240D03*
M02*
