G04 EAGLE Gerber RS-274X export*
G75*
%MOMM*%
%FSLAX34Y34*%
%LPD*%
%INTop Silkscreen*%
%IPPOS*%
%AMOC8*
5,1,8,0,0,1.08239X$1,22.5*%
G01*
%ADD10C,0.050800*%
%ADD11C,0.200000*%
%ADD12C,0.127000*%
%ADD13C,0.101600*%


D10*
X132334Y122174D02*
X132334Y127762D01*
X135438Y122174D01*
X135438Y127762D01*
X138197Y122174D02*
X140681Y122174D01*
X138197Y122174D02*
X138197Y127762D01*
X140681Y127762D01*
X140060Y125278D02*
X138197Y125278D01*
X145114Y125278D02*
X146045Y125278D01*
X146045Y122174D01*
X144183Y122174D01*
X144113Y122176D01*
X144044Y122182D01*
X143975Y122192D01*
X143907Y122205D01*
X143839Y122223D01*
X143773Y122244D01*
X143708Y122269D01*
X143644Y122297D01*
X143582Y122329D01*
X143522Y122364D01*
X143464Y122403D01*
X143409Y122445D01*
X143355Y122490D01*
X143305Y122538D01*
X143257Y122588D01*
X143212Y122642D01*
X143170Y122697D01*
X143131Y122755D01*
X143096Y122815D01*
X143064Y122877D01*
X143036Y122941D01*
X143011Y123006D01*
X142990Y123072D01*
X142972Y123140D01*
X142959Y123208D01*
X142949Y123277D01*
X142943Y123346D01*
X142941Y123416D01*
X142941Y126520D01*
X142943Y126590D01*
X142949Y126659D01*
X142959Y126728D01*
X142972Y126796D01*
X142990Y126864D01*
X143011Y126930D01*
X143036Y126995D01*
X143064Y127059D01*
X143096Y127121D01*
X143131Y127181D01*
X143170Y127239D01*
X143212Y127294D01*
X143257Y127348D01*
X143305Y127398D01*
X143355Y127446D01*
X143409Y127491D01*
X143464Y127533D01*
X143522Y127572D01*
X143582Y127607D01*
X143644Y127639D01*
X143708Y127667D01*
X143773Y127692D01*
X143839Y127713D01*
X143907Y127731D01*
X143975Y127744D01*
X144044Y127754D01*
X144113Y127760D01*
X144183Y127762D01*
X146045Y127762D01*
X149065Y127762D02*
X149065Y122174D01*
X148444Y122174D02*
X149686Y122174D01*
X149686Y127762D02*
X148444Y127762D01*
X153582Y122174D02*
X153652Y122176D01*
X153721Y122182D01*
X153790Y122192D01*
X153858Y122205D01*
X153926Y122223D01*
X153992Y122244D01*
X154057Y122269D01*
X154121Y122297D01*
X154183Y122329D01*
X154243Y122364D01*
X154301Y122403D01*
X154356Y122445D01*
X154410Y122490D01*
X154460Y122538D01*
X154508Y122588D01*
X154553Y122642D01*
X154595Y122697D01*
X154634Y122755D01*
X154669Y122815D01*
X154701Y122877D01*
X154729Y122941D01*
X154754Y123006D01*
X154775Y123072D01*
X154793Y123140D01*
X154806Y123208D01*
X154816Y123277D01*
X154822Y123346D01*
X154824Y123416D01*
X153582Y122174D02*
X153483Y122176D01*
X153385Y122181D01*
X153287Y122191D01*
X153189Y122204D01*
X153092Y122220D01*
X152995Y122240D01*
X152900Y122264D01*
X152805Y122292D01*
X152711Y122323D01*
X152619Y122357D01*
X152528Y122395D01*
X152438Y122436D01*
X152350Y122481D01*
X152264Y122529D01*
X152180Y122580D01*
X152098Y122634D01*
X152017Y122692D01*
X151939Y122752D01*
X151864Y122815D01*
X151790Y122881D01*
X151720Y122950D01*
X151874Y126520D02*
X151876Y126590D01*
X151882Y126659D01*
X151892Y126728D01*
X151905Y126796D01*
X151923Y126864D01*
X151944Y126930D01*
X151969Y126995D01*
X151997Y127059D01*
X152029Y127121D01*
X152064Y127181D01*
X152103Y127239D01*
X152145Y127294D01*
X152190Y127348D01*
X152238Y127398D01*
X152288Y127446D01*
X152342Y127491D01*
X152397Y127533D01*
X152455Y127572D01*
X152515Y127607D01*
X152577Y127639D01*
X152641Y127667D01*
X152706Y127692D01*
X152772Y127713D01*
X152840Y127731D01*
X152908Y127744D01*
X152977Y127754D01*
X153046Y127760D01*
X153116Y127762D01*
X153210Y127760D01*
X153303Y127754D01*
X153396Y127745D01*
X153489Y127732D01*
X153581Y127715D01*
X153672Y127695D01*
X153763Y127670D01*
X153852Y127643D01*
X153940Y127611D01*
X154027Y127576D01*
X154113Y127538D01*
X154196Y127496D01*
X154278Y127451D01*
X154359Y127403D01*
X154437Y127351D01*
X154513Y127296D01*
X152496Y125434D02*
X152437Y125470D01*
X152381Y125510D01*
X152327Y125553D01*
X152275Y125598D01*
X152226Y125647D01*
X152180Y125698D01*
X152137Y125751D01*
X152096Y125807D01*
X152059Y125865D01*
X152024Y125925D01*
X151994Y125986D01*
X151966Y126049D01*
X151942Y126114D01*
X151922Y126180D01*
X151905Y126247D01*
X151892Y126314D01*
X151883Y126382D01*
X151877Y126451D01*
X151875Y126520D01*
X154202Y124502D02*
X154261Y124466D01*
X154317Y124426D01*
X154371Y124383D01*
X154423Y124338D01*
X154472Y124289D01*
X154518Y124238D01*
X154561Y124185D01*
X154602Y124129D01*
X154639Y124071D01*
X154674Y124011D01*
X154704Y123950D01*
X154732Y123887D01*
X154756Y123822D01*
X154776Y123756D01*
X154793Y123689D01*
X154806Y123622D01*
X154815Y123554D01*
X154821Y123485D01*
X154823Y123416D01*
X154203Y124502D02*
X152495Y125434D01*
X156712Y127762D02*
X158575Y125123D01*
X160438Y127762D01*
X158575Y125123D02*
X158575Y122174D01*
X162692Y122174D02*
X162692Y127762D01*
X165796Y122174D01*
X165796Y127762D01*
X169587Y122174D02*
X170828Y122174D01*
X169587Y122174D02*
X169517Y122176D01*
X169448Y122182D01*
X169379Y122192D01*
X169311Y122205D01*
X169243Y122223D01*
X169177Y122244D01*
X169112Y122269D01*
X169048Y122297D01*
X168986Y122329D01*
X168926Y122364D01*
X168868Y122403D01*
X168813Y122445D01*
X168759Y122490D01*
X168709Y122538D01*
X168661Y122588D01*
X168616Y122642D01*
X168574Y122697D01*
X168535Y122755D01*
X168500Y122815D01*
X168468Y122877D01*
X168440Y122941D01*
X168415Y123006D01*
X168394Y123072D01*
X168376Y123140D01*
X168363Y123208D01*
X168353Y123277D01*
X168347Y123346D01*
X168345Y123416D01*
X168345Y126520D01*
X168347Y126590D01*
X168353Y126659D01*
X168363Y126728D01*
X168376Y126796D01*
X168394Y126864D01*
X168415Y126930D01*
X168440Y126995D01*
X168468Y127059D01*
X168500Y127121D01*
X168535Y127181D01*
X168574Y127239D01*
X168616Y127294D01*
X168661Y127348D01*
X168709Y127398D01*
X168759Y127446D01*
X168813Y127491D01*
X168868Y127533D01*
X168926Y127572D01*
X168986Y127607D01*
X169048Y127639D01*
X169112Y127667D01*
X169177Y127692D01*
X169243Y127713D01*
X169311Y127731D01*
X169379Y127744D01*
X169448Y127754D01*
X169517Y127760D01*
X169587Y127762D01*
X170828Y127762D01*
X12446Y40838D02*
X12446Y39596D01*
X12444Y39526D01*
X12438Y39457D01*
X12428Y39388D01*
X12415Y39320D01*
X12397Y39252D01*
X12376Y39186D01*
X12351Y39121D01*
X12323Y39057D01*
X12291Y38995D01*
X12256Y38935D01*
X12217Y38877D01*
X12175Y38822D01*
X12130Y38768D01*
X12082Y38718D01*
X12032Y38670D01*
X11978Y38625D01*
X11923Y38583D01*
X11865Y38544D01*
X11805Y38509D01*
X11743Y38477D01*
X11679Y38449D01*
X11614Y38424D01*
X11548Y38403D01*
X11480Y38385D01*
X11412Y38372D01*
X11343Y38362D01*
X11274Y38356D01*
X11204Y38354D01*
X8100Y38354D01*
X8030Y38356D01*
X7961Y38362D01*
X7892Y38372D01*
X7824Y38385D01*
X7756Y38403D01*
X7690Y38424D01*
X7625Y38449D01*
X7561Y38477D01*
X7499Y38509D01*
X7439Y38544D01*
X7381Y38583D01*
X7326Y38625D01*
X7272Y38670D01*
X7222Y38718D01*
X7174Y38768D01*
X7129Y38822D01*
X7087Y38877D01*
X7048Y38935D01*
X7013Y38995D01*
X6981Y39057D01*
X6953Y39121D01*
X6928Y39186D01*
X6907Y39252D01*
X6889Y39320D01*
X6876Y39388D01*
X6866Y39457D01*
X6860Y39526D01*
X6858Y39596D01*
X6858Y40838D01*
X8100Y42942D02*
X6858Y44494D01*
X12446Y44494D01*
X12446Y42942D02*
X12446Y46047D01*
X146276Y18034D02*
X147518Y18034D01*
X146276Y18034D02*
X146206Y18036D01*
X146137Y18042D01*
X146068Y18052D01*
X146000Y18065D01*
X145932Y18083D01*
X145866Y18104D01*
X145801Y18129D01*
X145737Y18157D01*
X145675Y18189D01*
X145615Y18224D01*
X145557Y18263D01*
X145502Y18305D01*
X145448Y18350D01*
X145398Y18398D01*
X145350Y18448D01*
X145305Y18502D01*
X145263Y18557D01*
X145224Y18615D01*
X145189Y18675D01*
X145157Y18737D01*
X145129Y18801D01*
X145104Y18866D01*
X145083Y18932D01*
X145065Y19000D01*
X145052Y19068D01*
X145042Y19137D01*
X145036Y19206D01*
X145034Y19276D01*
X145034Y22380D01*
X145036Y22450D01*
X145042Y22519D01*
X145052Y22588D01*
X145065Y22656D01*
X145083Y22724D01*
X145104Y22790D01*
X145129Y22855D01*
X145157Y22919D01*
X145189Y22981D01*
X145224Y23041D01*
X145263Y23099D01*
X145305Y23154D01*
X145350Y23208D01*
X145398Y23258D01*
X145448Y23306D01*
X145502Y23351D01*
X145557Y23393D01*
X145615Y23432D01*
X145675Y23467D01*
X145737Y23499D01*
X145801Y23527D01*
X145866Y23552D01*
X145932Y23573D01*
X146000Y23591D01*
X146068Y23604D01*
X146137Y23614D01*
X146206Y23620D01*
X146276Y23622D01*
X147518Y23622D01*
X151330Y23622D02*
X151403Y23620D01*
X151476Y23614D01*
X151549Y23605D01*
X151620Y23591D01*
X151692Y23574D01*
X151762Y23554D01*
X151831Y23529D01*
X151898Y23501D01*
X151964Y23470D01*
X152029Y23435D01*
X152091Y23397D01*
X152151Y23355D01*
X152209Y23311D01*
X152265Y23263D01*
X152318Y23213D01*
X152368Y23160D01*
X152416Y23104D01*
X152460Y23046D01*
X152502Y22986D01*
X152540Y22924D01*
X152575Y22859D01*
X152606Y22793D01*
X152634Y22726D01*
X152659Y22657D01*
X152679Y22587D01*
X152696Y22515D01*
X152710Y22444D01*
X152719Y22371D01*
X152725Y22298D01*
X152727Y22225D01*
X151330Y23622D02*
X151246Y23620D01*
X151163Y23614D01*
X151080Y23605D01*
X150998Y23591D01*
X150916Y23574D01*
X150835Y23552D01*
X150755Y23527D01*
X150677Y23499D01*
X150599Y23467D01*
X150524Y23431D01*
X150450Y23392D01*
X150378Y23349D01*
X150308Y23303D01*
X150241Y23254D01*
X150175Y23201D01*
X150113Y23146D01*
X150053Y23088D01*
X149995Y23027D01*
X149941Y22964D01*
X149889Y22898D01*
X149841Y22830D01*
X149796Y22759D01*
X149754Y22687D01*
X149716Y22612D01*
X149681Y22536D01*
X149650Y22459D01*
X149622Y22380D01*
X152260Y21139D02*
X152314Y21192D01*
X152365Y21249D01*
X152413Y21308D01*
X152458Y21369D01*
X152499Y21432D01*
X152538Y21498D01*
X152573Y21565D01*
X152605Y21634D01*
X152633Y21705D01*
X152657Y21776D01*
X152678Y21849D01*
X152695Y21923D01*
X152709Y21998D01*
X152718Y22073D01*
X152724Y22149D01*
X152726Y22225D01*
X152261Y21138D02*
X149622Y18034D01*
X152727Y18034D01*
X71318Y101854D02*
X70076Y101854D01*
X70006Y101856D01*
X69937Y101862D01*
X69868Y101872D01*
X69800Y101885D01*
X69732Y101903D01*
X69666Y101924D01*
X69601Y101949D01*
X69537Y101977D01*
X69475Y102009D01*
X69415Y102044D01*
X69357Y102083D01*
X69302Y102125D01*
X69248Y102170D01*
X69198Y102218D01*
X69150Y102268D01*
X69105Y102322D01*
X69063Y102377D01*
X69024Y102435D01*
X68989Y102495D01*
X68957Y102557D01*
X68929Y102621D01*
X68904Y102686D01*
X68883Y102752D01*
X68865Y102820D01*
X68852Y102888D01*
X68842Y102957D01*
X68836Y103026D01*
X68834Y103096D01*
X68834Y106200D01*
X68836Y106270D01*
X68842Y106339D01*
X68852Y106408D01*
X68865Y106476D01*
X68883Y106544D01*
X68904Y106610D01*
X68929Y106675D01*
X68957Y106739D01*
X68989Y106801D01*
X69024Y106861D01*
X69063Y106919D01*
X69105Y106974D01*
X69150Y107028D01*
X69198Y107078D01*
X69248Y107126D01*
X69302Y107171D01*
X69357Y107213D01*
X69415Y107252D01*
X69475Y107287D01*
X69537Y107319D01*
X69601Y107347D01*
X69666Y107372D01*
X69732Y107393D01*
X69800Y107411D01*
X69868Y107424D01*
X69937Y107434D01*
X70006Y107440D01*
X70076Y107442D01*
X71318Y107442D01*
X73422Y101854D02*
X74974Y101854D01*
X75051Y101856D01*
X75129Y101862D01*
X75205Y101871D01*
X75282Y101885D01*
X75357Y101902D01*
X75431Y101923D01*
X75505Y101948D01*
X75577Y101976D01*
X75647Y102008D01*
X75716Y102043D01*
X75783Y102082D01*
X75848Y102124D01*
X75911Y102169D01*
X75972Y102217D01*
X76030Y102268D01*
X76085Y102322D01*
X76138Y102379D01*
X76187Y102438D01*
X76234Y102500D01*
X76278Y102564D01*
X76318Y102630D01*
X76355Y102698D01*
X76389Y102768D01*
X76419Y102839D01*
X76445Y102912D01*
X76468Y102986D01*
X76487Y103061D01*
X76502Y103136D01*
X76514Y103213D01*
X76522Y103290D01*
X76526Y103367D01*
X76526Y103445D01*
X76522Y103522D01*
X76514Y103599D01*
X76502Y103676D01*
X76487Y103751D01*
X76468Y103826D01*
X76445Y103900D01*
X76419Y103973D01*
X76389Y104044D01*
X76355Y104114D01*
X76318Y104182D01*
X76278Y104248D01*
X76234Y104312D01*
X76187Y104374D01*
X76138Y104433D01*
X76085Y104490D01*
X76030Y104544D01*
X75972Y104595D01*
X75911Y104643D01*
X75848Y104688D01*
X75783Y104730D01*
X75716Y104769D01*
X75647Y104804D01*
X75577Y104836D01*
X75505Y104864D01*
X75431Y104889D01*
X75357Y104910D01*
X75282Y104927D01*
X75205Y104941D01*
X75129Y104950D01*
X75051Y104956D01*
X74974Y104958D01*
X75285Y107442D02*
X73422Y107442D01*
X75285Y107442D02*
X75355Y107440D01*
X75424Y107434D01*
X75493Y107424D01*
X75561Y107411D01*
X75629Y107393D01*
X75695Y107372D01*
X75760Y107347D01*
X75824Y107319D01*
X75886Y107287D01*
X75946Y107252D01*
X76004Y107213D01*
X76059Y107171D01*
X76113Y107126D01*
X76163Y107078D01*
X76211Y107028D01*
X76256Y106974D01*
X76298Y106919D01*
X76337Y106861D01*
X76372Y106801D01*
X76404Y106739D01*
X76432Y106675D01*
X76457Y106610D01*
X76478Y106544D01*
X76496Y106476D01*
X76509Y106408D01*
X76519Y106339D01*
X76525Y106270D01*
X76527Y106200D01*
X76525Y106130D01*
X76519Y106061D01*
X76509Y105992D01*
X76496Y105924D01*
X76478Y105856D01*
X76457Y105790D01*
X76432Y105725D01*
X76404Y105661D01*
X76372Y105599D01*
X76337Y105539D01*
X76298Y105481D01*
X76256Y105426D01*
X76211Y105372D01*
X76163Y105322D01*
X76113Y105274D01*
X76059Y105229D01*
X76004Y105187D01*
X75946Y105148D01*
X75886Y105113D01*
X75824Y105081D01*
X75760Y105053D01*
X75695Y105028D01*
X75629Y105007D01*
X75561Y104989D01*
X75493Y104976D01*
X75424Y104966D01*
X75355Y104960D01*
X75285Y104958D01*
X74043Y104958D01*
X46233Y9018D02*
X44991Y9018D01*
X44921Y9020D01*
X44852Y9026D01*
X44783Y9036D01*
X44715Y9049D01*
X44647Y9067D01*
X44581Y9088D01*
X44516Y9113D01*
X44452Y9141D01*
X44390Y9173D01*
X44330Y9208D01*
X44272Y9247D01*
X44217Y9289D01*
X44163Y9334D01*
X44113Y9382D01*
X44065Y9432D01*
X44020Y9486D01*
X43978Y9541D01*
X43939Y9599D01*
X43904Y9659D01*
X43872Y9721D01*
X43844Y9785D01*
X43819Y9850D01*
X43798Y9916D01*
X43780Y9984D01*
X43767Y10052D01*
X43757Y10121D01*
X43751Y10190D01*
X43749Y10260D01*
X43750Y10260D02*
X43750Y13364D01*
X43749Y13364D02*
X43751Y13434D01*
X43757Y13503D01*
X43767Y13572D01*
X43780Y13640D01*
X43798Y13708D01*
X43819Y13774D01*
X43844Y13839D01*
X43872Y13903D01*
X43904Y13965D01*
X43939Y14025D01*
X43978Y14083D01*
X44020Y14138D01*
X44065Y14192D01*
X44113Y14242D01*
X44163Y14290D01*
X44217Y14335D01*
X44272Y14377D01*
X44330Y14416D01*
X44390Y14451D01*
X44452Y14483D01*
X44516Y14511D01*
X44581Y14536D01*
X44647Y14557D01*
X44715Y14575D01*
X44783Y14588D01*
X44852Y14598D01*
X44921Y14604D01*
X44991Y14606D01*
X46233Y14606D01*
X48100Y8397D02*
X50583Y8397D01*
X53182Y9018D02*
X53182Y14606D01*
X52561Y9018D02*
X53803Y9018D01*
X53803Y14606D02*
X52561Y14606D01*
X56202Y14606D02*
X56202Y9018D01*
X59306Y9018D02*
X56202Y14606D01*
X59306Y14606D02*
X59306Y9018D01*
X9218Y99694D02*
X7976Y99694D01*
X7906Y99696D01*
X7837Y99702D01*
X7768Y99712D01*
X7700Y99725D01*
X7632Y99743D01*
X7566Y99764D01*
X7501Y99789D01*
X7437Y99817D01*
X7375Y99849D01*
X7315Y99884D01*
X7257Y99923D01*
X7202Y99965D01*
X7148Y100010D01*
X7098Y100058D01*
X7050Y100108D01*
X7005Y100162D01*
X6963Y100217D01*
X6924Y100275D01*
X6889Y100335D01*
X6857Y100397D01*
X6829Y100461D01*
X6804Y100526D01*
X6783Y100592D01*
X6765Y100660D01*
X6752Y100728D01*
X6742Y100797D01*
X6736Y100866D01*
X6734Y100936D01*
X6734Y104040D01*
X6736Y104110D01*
X6742Y104179D01*
X6752Y104248D01*
X6765Y104316D01*
X6783Y104384D01*
X6804Y104450D01*
X6829Y104515D01*
X6857Y104579D01*
X6889Y104641D01*
X6924Y104701D01*
X6963Y104759D01*
X7005Y104814D01*
X7050Y104868D01*
X7098Y104918D01*
X7148Y104966D01*
X7202Y105011D01*
X7257Y105053D01*
X7315Y105092D01*
X7375Y105127D01*
X7437Y105159D01*
X7501Y105187D01*
X7566Y105212D01*
X7632Y105233D01*
X7700Y105251D01*
X7768Y105264D01*
X7837Y105274D01*
X7906Y105280D01*
X7976Y105282D01*
X9218Y105282D01*
X14244Y100936D02*
X14242Y100866D01*
X14236Y100797D01*
X14226Y100728D01*
X14213Y100660D01*
X14195Y100592D01*
X14174Y100526D01*
X14149Y100461D01*
X14121Y100397D01*
X14089Y100335D01*
X14054Y100275D01*
X14015Y100217D01*
X13973Y100162D01*
X13928Y100108D01*
X13880Y100058D01*
X13830Y100010D01*
X13776Y99965D01*
X13721Y99923D01*
X13663Y99884D01*
X13603Y99849D01*
X13541Y99817D01*
X13477Y99789D01*
X13412Y99764D01*
X13346Y99743D01*
X13278Y99725D01*
X13210Y99712D01*
X13141Y99702D01*
X13072Y99696D01*
X13002Y99694D01*
X12903Y99696D01*
X12805Y99701D01*
X12707Y99711D01*
X12609Y99724D01*
X12512Y99740D01*
X12415Y99760D01*
X12320Y99784D01*
X12225Y99812D01*
X12131Y99843D01*
X12039Y99877D01*
X11948Y99915D01*
X11858Y99956D01*
X11770Y100001D01*
X11684Y100049D01*
X11600Y100100D01*
X11518Y100154D01*
X11437Y100212D01*
X11359Y100272D01*
X11284Y100335D01*
X11210Y100401D01*
X11140Y100470D01*
X11294Y104040D02*
X11296Y104110D01*
X11302Y104179D01*
X11312Y104248D01*
X11325Y104316D01*
X11343Y104384D01*
X11364Y104450D01*
X11389Y104515D01*
X11417Y104579D01*
X11449Y104641D01*
X11484Y104701D01*
X11523Y104759D01*
X11565Y104814D01*
X11610Y104868D01*
X11658Y104918D01*
X11708Y104966D01*
X11762Y105011D01*
X11817Y105053D01*
X11875Y105092D01*
X11935Y105127D01*
X11997Y105159D01*
X12061Y105187D01*
X12126Y105212D01*
X12192Y105233D01*
X12260Y105251D01*
X12328Y105264D01*
X12397Y105274D01*
X12466Y105280D01*
X12536Y105282D01*
X12630Y105280D01*
X12723Y105274D01*
X12816Y105265D01*
X12909Y105252D01*
X13001Y105235D01*
X13092Y105215D01*
X13183Y105190D01*
X13272Y105163D01*
X13360Y105131D01*
X13447Y105096D01*
X13533Y105058D01*
X13616Y105016D01*
X13698Y104971D01*
X13779Y104923D01*
X13857Y104871D01*
X13933Y104816D01*
X11916Y102954D02*
X11857Y102990D01*
X11801Y103030D01*
X11747Y103073D01*
X11695Y103118D01*
X11646Y103167D01*
X11600Y103218D01*
X11557Y103271D01*
X11516Y103327D01*
X11479Y103385D01*
X11444Y103445D01*
X11414Y103506D01*
X11386Y103569D01*
X11362Y103634D01*
X11342Y103700D01*
X11325Y103767D01*
X11312Y103834D01*
X11303Y103902D01*
X11297Y103971D01*
X11295Y104040D01*
X13623Y102022D02*
X13682Y101986D01*
X13738Y101946D01*
X13792Y101903D01*
X13844Y101858D01*
X13893Y101809D01*
X13939Y101758D01*
X13982Y101705D01*
X14023Y101649D01*
X14060Y101591D01*
X14095Y101531D01*
X14125Y101470D01*
X14153Y101407D01*
X14177Y101342D01*
X14197Y101276D01*
X14214Y101209D01*
X14227Y101142D01*
X14236Y101074D01*
X14242Y101005D01*
X14244Y100936D01*
X13623Y102022D02*
X11915Y102954D01*
X16205Y99073D02*
X18688Y99073D01*
X20832Y101246D02*
X20832Y103730D01*
X20834Y103807D01*
X20840Y103885D01*
X20849Y103961D01*
X20863Y104038D01*
X20880Y104113D01*
X20901Y104187D01*
X20926Y104261D01*
X20954Y104333D01*
X20986Y104403D01*
X21021Y104472D01*
X21060Y104539D01*
X21102Y104604D01*
X21147Y104667D01*
X21195Y104728D01*
X21246Y104786D01*
X21300Y104841D01*
X21357Y104894D01*
X21416Y104943D01*
X21478Y104990D01*
X21542Y105034D01*
X21608Y105074D01*
X21676Y105111D01*
X21746Y105145D01*
X21817Y105175D01*
X21890Y105201D01*
X21964Y105224D01*
X22039Y105243D01*
X22114Y105258D01*
X22191Y105270D01*
X22268Y105278D01*
X22345Y105282D01*
X22423Y105282D01*
X22500Y105278D01*
X22577Y105270D01*
X22654Y105258D01*
X22729Y105243D01*
X22804Y105224D01*
X22878Y105201D01*
X22951Y105175D01*
X23022Y105145D01*
X23092Y105111D01*
X23160Y105074D01*
X23226Y105034D01*
X23290Y104990D01*
X23352Y104943D01*
X23411Y104894D01*
X23468Y104841D01*
X23522Y104786D01*
X23573Y104728D01*
X23621Y104667D01*
X23666Y104604D01*
X23708Y104539D01*
X23747Y104472D01*
X23782Y104403D01*
X23814Y104333D01*
X23842Y104261D01*
X23867Y104187D01*
X23888Y104113D01*
X23905Y104038D01*
X23919Y103961D01*
X23928Y103885D01*
X23934Y103807D01*
X23936Y103730D01*
X23936Y101246D01*
X23934Y101169D01*
X23928Y101091D01*
X23919Y101015D01*
X23905Y100938D01*
X23888Y100863D01*
X23867Y100789D01*
X23842Y100715D01*
X23814Y100643D01*
X23782Y100573D01*
X23747Y100504D01*
X23708Y100437D01*
X23666Y100372D01*
X23621Y100309D01*
X23573Y100248D01*
X23522Y100190D01*
X23468Y100135D01*
X23411Y100082D01*
X23352Y100033D01*
X23290Y99986D01*
X23226Y99942D01*
X23160Y99902D01*
X23092Y99865D01*
X23022Y99831D01*
X22951Y99801D01*
X22878Y99775D01*
X22804Y99752D01*
X22729Y99733D01*
X22654Y99718D01*
X22577Y99706D01*
X22500Y99698D01*
X22423Y99694D01*
X22345Y99694D01*
X22268Y99698D01*
X22191Y99706D01*
X22114Y99718D01*
X22039Y99733D01*
X21964Y99752D01*
X21890Y99775D01*
X21817Y99801D01*
X21746Y99831D01*
X21676Y99865D01*
X21608Y99902D01*
X21542Y99942D01*
X21478Y99986D01*
X21416Y100033D01*
X21357Y100082D01*
X21300Y100135D01*
X21246Y100190D01*
X21195Y100248D01*
X21147Y100309D01*
X21102Y100372D01*
X21060Y100437D01*
X21021Y100504D01*
X20986Y100573D01*
X20954Y100643D01*
X20926Y100715D01*
X20901Y100789D01*
X20880Y100863D01*
X20863Y100938D01*
X20849Y101015D01*
X20840Y101091D01*
X20834Y101169D01*
X20832Y101246D01*
X92727Y120578D02*
X93658Y120578D01*
X93658Y117474D01*
X91796Y117474D01*
X91726Y117476D01*
X91657Y117482D01*
X91588Y117492D01*
X91520Y117505D01*
X91452Y117523D01*
X91386Y117544D01*
X91321Y117569D01*
X91257Y117597D01*
X91195Y117629D01*
X91135Y117664D01*
X91077Y117703D01*
X91022Y117745D01*
X90968Y117790D01*
X90918Y117838D01*
X90870Y117888D01*
X90825Y117942D01*
X90783Y117997D01*
X90744Y118055D01*
X90709Y118115D01*
X90677Y118177D01*
X90649Y118241D01*
X90624Y118306D01*
X90603Y118372D01*
X90585Y118440D01*
X90572Y118508D01*
X90562Y118577D01*
X90556Y118646D01*
X90554Y118716D01*
X90554Y121820D01*
X90556Y121890D01*
X90562Y121959D01*
X90572Y122028D01*
X90585Y122096D01*
X90603Y122164D01*
X90624Y122230D01*
X90649Y122295D01*
X90677Y122359D01*
X90709Y122421D01*
X90744Y122481D01*
X90783Y122539D01*
X90825Y122594D01*
X90870Y122648D01*
X90918Y122698D01*
X90968Y122746D01*
X91022Y122791D01*
X91077Y122833D01*
X91135Y122872D01*
X91195Y122907D01*
X91257Y122939D01*
X91321Y122967D01*
X91386Y122992D01*
X91452Y123013D01*
X91520Y123031D01*
X91588Y123044D01*
X91657Y123054D01*
X91726Y123060D01*
X91796Y123062D01*
X93658Y123062D01*
X96406Y123062D02*
X96406Y117474D01*
X99511Y117474D02*
X96406Y123062D01*
X99511Y123062D02*
X99511Y117474D01*
X102258Y117474D02*
X102258Y123062D01*
X103810Y123062D01*
X103886Y123060D01*
X103962Y123055D01*
X104038Y123045D01*
X104113Y123032D01*
X104187Y123015D01*
X104261Y122995D01*
X104333Y122971D01*
X104404Y122944D01*
X104474Y122913D01*
X104542Y122879D01*
X104608Y122841D01*
X104672Y122800D01*
X104735Y122757D01*
X104795Y122710D01*
X104852Y122660D01*
X104907Y122607D01*
X104960Y122552D01*
X105010Y122495D01*
X105057Y122435D01*
X105100Y122372D01*
X105141Y122308D01*
X105179Y122242D01*
X105213Y122174D01*
X105244Y122104D01*
X105271Y122033D01*
X105295Y121960D01*
X105315Y121887D01*
X105332Y121813D01*
X105345Y121738D01*
X105355Y121662D01*
X105360Y121586D01*
X105362Y121510D01*
X105363Y121510D02*
X105363Y119026D01*
X105362Y119026D02*
X105360Y118947D01*
X105354Y118869D01*
X105344Y118791D01*
X105330Y118714D01*
X105312Y118637D01*
X105291Y118561D01*
X105265Y118487D01*
X105236Y118414D01*
X105203Y118343D01*
X105167Y118273D01*
X105127Y118205D01*
X105084Y118139D01*
X105037Y118076D01*
X104988Y118015D01*
X104935Y117957D01*
X104879Y117901D01*
X104821Y117848D01*
X104760Y117799D01*
X104697Y117752D01*
X104631Y117709D01*
X104563Y117669D01*
X104494Y117633D01*
X104422Y117600D01*
X104349Y117571D01*
X104275Y117545D01*
X104199Y117524D01*
X104122Y117506D01*
X104045Y117492D01*
X103967Y117482D01*
X103889Y117476D01*
X103810Y117474D01*
X102258Y117474D01*
X146131Y78486D02*
X146131Y72898D01*
X146131Y78486D02*
X147684Y78486D01*
X147761Y78484D01*
X147839Y78478D01*
X147915Y78469D01*
X147992Y78455D01*
X148067Y78438D01*
X148141Y78417D01*
X148215Y78392D01*
X148287Y78364D01*
X148357Y78332D01*
X148426Y78297D01*
X148493Y78258D01*
X148558Y78216D01*
X148621Y78171D01*
X148682Y78123D01*
X148740Y78072D01*
X148795Y78018D01*
X148848Y77961D01*
X148897Y77902D01*
X148944Y77840D01*
X148988Y77776D01*
X149028Y77710D01*
X149065Y77642D01*
X149099Y77572D01*
X149129Y77501D01*
X149155Y77428D01*
X149178Y77354D01*
X149197Y77279D01*
X149212Y77204D01*
X149224Y77127D01*
X149232Y77050D01*
X149236Y76973D01*
X149236Y76895D01*
X149232Y76818D01*
X149224Y76741D01*
X149212Y76664D01*
X149197Y76589D01*
X149178Y76514D01*
X149155Y76440D01*
X149129Y76367D01*
X149099Y76296D01*
X149065Y76226D01*
X149028Y76158D01*
X148988Y76092D01*
X148944Y76028D01*
X148897Y75966D01*
X148848Y75907D01*
X148795Y75850D01*
X148740Y75796D01*
X148682Y75745D01*
X148621Y75697D01*
X148558Y75652D01*
X148493Y75610D01*
X148426Y75571D01*
X148357Y75536D01*
X148287Y75504D01*
X148215Y75476D01*
X148141Y75451D01*
X148067Y75430D01*
X147992Y75413D01*
X147915Y75399D01*
X147839Y75390D01*
X147761Y75384D01*
X147684Y75382D01*
X146131Y75382D01*
X147994Y75382D02*
X149236Y72898D01*
X151582Y77244D02*
X153134Y78486D01*
X153134Y72898D01*
X151582Y72898D02*
X154686Y72898D01*
D11*
X39880Y71310D02*
X39882Y71373D01*
X39888Y71435D01*
X39898Y71497D01*
X39911Y71559D01*
X39929Y71619D01*
X39950Y71678D01*
X39975Y71736D01*
X40004Y71792D01*
X40036Y71846D01*
X40071Y71898D01*
X40109Y71947D01*
X40151Y71995D01*
X40195Y72039D01*
X40243Y72081D01*
X40292Y72119D01*
X40344Y72154D01*
X40398Y72186D01*
X40454Y72215D01*
X40512Y72240D01*
X40571Y72261D01*
X40631Y72279D01*
X40693Y72292D01*
X40755Y72302D01*
X40817Y72308D01*
X40880Y72310D01*
X40943Y72308D01*
X41005Y72302D01*
X41067Y72292D01*
X41129Y72279D01*
X41189Y72261D01*
X41248Y72240D01*
X41306Y72215D01*
X41362Y72186D01*
X41416Y72154D01*
X41468Y72119D01*
X41517Y72081D01*
X41565Y72039D01*
X41609Y71995D01*
X41651Y71947D01*
X41689Y71898D01*
X41724Y71846D01*
X41756Y71792D01*
X41785Y71736D01*
X41810Y71678D01*
X41831Y71619D01*
X41849Y71559D01*
X41862Y71497D01*
X41872Y71435D01*
X41878Y71373D01*
X41880Y71310D01*
X41878Y71247D01*
X41872Y71185D01*
X41862Y71123D01*
X41849Y71061D01*
X41831Y71001D01*
X41810Y70942D01*
X41785Y70884D01*
X41756Y70828D01*
X41724Y70774D01*
X41689Y70722D01*
X41651Y70673D01*
X41609Y70625D01*
X41565Y70581D01*
X41517Y70539D01*
X41468Y70501D01*
X41416Y70466D01*
X41362Y70434D01*
X41306Y70405D01*
X41248Y70380D01*
X41189Y70359D01*
X41129Y70341D01*
X41067Y70328D01*
X41005Y70318D01*
X40943Y70312D01*
X40880Y70310D01*
X40817Y70312D01*
X40755Y70318D01*
X40693Y70328D01*
X40631Y70341D01*
X40571Y70359D01*
X40512Y70380D01*
X40454Y70405D01*
X40398Y70434D01*
X40344Y70466D01*
X40292Y70501D01*
X40243Y70539D01*
X40195Y70581D01*
X40151Y70625D01*
X40109Y70673D01*
X40071Y70722D01*
X40036Y70774D01*
X40004Y70828D01*
X39975Y70884D01*
X39950Y70942D01*
X39929Y71001D01*
X39911Y71061D01*
X39898Y71123D01*
X39888Y71185D01*
X39882Y71247D01*
X39880Y71310D01*
D12*
X61780Y73510D02*
X100780Y73510D01*
X100780Y23010D02*
X61780Y23010D01*
D13*
X71588Y45474D02*
X71588Y53912D01*
X71588Y45474D02*
X71590Y45361D01*
X71596Y45248D01*
X71606Y45135D01*
X71620Y45022D01*
X71637Y44910D01*
X71659Y44799D01*
X71684Y44689D01*
X71714Y44579D01*
X71747Y44471D01*
X71784Y44364D01*
X71824Y44258D01*
X71869Y44154D01*
X71917Y44051D01*
X71968Y43950D01*
X72023Y43851D01*
X72081Y43754D01*
X72143Y43659D01*
X72208Y43566D01*
X72276Y43476D01*
X72347Y43388D01*
X72422Y43302D01*
X72499Y43219D01*
X72579Y43139D01*
X72662Y43062D01*
X72748Y42987D01*
X72836Y42916D01*
X72926Y42848D01*
X73019Y42783D01*
X73114Y42721D01*
X73211Y42663D01*
X73310Y42608D01*
X73411Y42557D01*
X73514Y42509D01*
X73618Y42464D01*
X73724Y42424D01*
X73831Y42387D01*
X73939Y42354D01*
X74049Y42324D01*
X74159Y42299D01*
X74270Y42277D01*
X74382Y42260D01*
X74495Y42246D01*
X74608Y42236D01*
X74721Y42230D01*
X74834Y42228D01*
X74947Y42230D01*
X75060Y42236D01*
X75173Y42246D01*
X75286Y42260D01*
X75398Y42277D01*
X75509Y42299D01*
X75619Y42324D01*
X75729Y42354D01*
X75837Y42387D01*
X75944Y42424D01*
X76050Y42464D01*
X76154Y42509D01*
X76257Y42557D01*
X76358Y42608D01*
X76457Y42663D01*
X76554Y42721D01*
X76649Y42783D01*
X76742Y42848D01*
X76832Y42916D01*
X76920Y42987D01*
X77006Y43062D01*
X77089Y43139D01*
X77169Y43219D01*
X77246Y43302D01*
X77321Y43388D01*
X77392Y43476D01*
X77460Y43566D01*
X77525Y43659D01*
X77587Y43754D01*
X77645Y43851D01*
X77700Y43950D01*
X77751Y44051D01*
X77799Y44154D01*
X77844Y44258D01*
X77884Y44364D01*
X77921Y44471D01*
X77954Y44579D01*
X77984Y44689D01*
X78009Y44799D01*
X78031Y44910D01*
X78048Y45022D01*
X78062Y45135D01*
X78072Y45248D01*
X78078Y45361D01*
X78080Y45474D01*
X78079Y45474D02*
X78079Y53912D01*
X83399Y51316D02*
X86645Y53912D01*
X86645Y42228D01*
X89890Y42228D02*
X83399Y42228D01*
D10*
X26377Y117474D02*
X24514Y123062D01*
X28239Y123062D02*
X26377Y117474D01*
X31536Y117474D02*
X32778Y117474D01*
X31536Y117474D02*
X31466Y117476D01*
X31397Y117482D01*
X31328Y117492D01*
X31260Y117505D01*
X31192Y117523D01*
X31126Y117544D01*
X31061Y117569D01*
X30997Y117597D01*
X30935Y117629D01*
X30875Y117664D01*
X30817Y117703D01*
X30762Y117745D01*
X30708Y117790D01*
X30658Y117838D01*
X30610Y117888D01*
X30565Y117942D01*
X30523Y117997D01*
X30484Y118055D01*
X30449Y118115D01*
X30417Y118177D01*
X30389Y118241D01*
X30364Y118306D01*
X30343Y118372D01*
X30325Y118440D01*
X30312Y118508D01*
X30302Y118577D01*
X30296Y118646D01*
X30294Y118716D01*
X30295Y118716D02*
X30295Y121820D01*
X30294Y121820D02*
X30296Y121890D01*
X30302Y121959D01*
X30312Y122028D01*
X30325Y122096D01*
X30343Y122164D01*
X30364Y122230D01*
X30389Y122295D01*
X30417Y122359D01*
X30449Y122421D01*
X30484Y122481D01*
X30523Y122539D01*
X30565Y122594D01*
X30610Y122648D01*
X30658Y122698D01*
X30708Y122746D01*
X30762Y122791D01*
X30817Y122833D01*
X30875Y122872D01*
X30935Y122907D01*
X30997Y122939D01*
X31061Y122967D01*
X31126Y122992D01*
X31192Y123013D01*
X31260Y123031D01*
X31328Y123044D01*
X31397Y123054D01*
X31466Y123060D01*
X31536Y123062D01*
X32778Y123062D01*
X36108Y117474D02*
X37350Y117474D01*
X36108Y117474D02*
X36038Y117476D01*
X35969Y117482D01*
X35900Y117492D01*
X35832Y117505D01*
X35764Y117523D01*
X35698Y117544D01*
X35633Y117569D01*
X35569Y117597D01*
X35507Y117629D01*
X35447Y117664D01*
X35389Y117703D01*
X35334Y117745D01*
X35280Y117790D01*
X35230Y117838D01*
X35182Y117888D01*
X35137Y117942D01*
X35095Y117997D01*
X35056Y118055D01*
X35021Y118115D01*
X34989Y118177D01*
X34961Y118241D01*
X34936Y118306D01*
X34915Y118372D01*
X34897Y118440D01*
X34884Y118508D01*
X34874Y118577D01*
X34868Y118646D01*
X34866Y118716D01*
X34866Y121820D01*
X34868Y121890D01*
X34874Y121959D01*
X34884Y122028D01*
X34897Y122096D01*
X34915Y122164D01*
X34936Y122230D01*
X34961Y122295D01*
X34989Y122359D01*
X35021Y122421D01*
X35056Y122481D01*
X35095Y122539D01*
X35137Y122594D01*
X35182Y122648D01*
X35230Y122698D01*
X35280Y122746D01*
X35334Y122791D01*
X35389Y122833D01*
X35447Y122872D01*
X35507Y122907D01*
X35569Y122939D01*
X35633Y122967D01*
X35698Y122992D01*
X35764Y123013D01*
X35832Y123031D01*
X35900Y123044D01*
X35969Y123054D01*
X36038Y123060D01*
X36108Y123062D01*
X37350Y123062D01*
X101855Y14606D02*
X103718Y9018D01*
X105580Y14606D01*
X110574Y10260D02*
X110572Y10190D01*
X110566Y10121D01*
X110556Y10052D01*
X110543Y9984D01*
X110525Y9916D01*
X110504Y9850D01*
X110479Y9785D01*
X110451Y9721D01*
X110419Y9659D01*
X110384Y9599D01*
X110345Y9541D01*
X110303Y9486D01*
X110258Y9432D01*
X110210Y9382D01*
X110160Y9334D01*
X110106Y9289D01*
X110051Y9247D01*
X109993Y9208D01*
X109933Y9173D01*
X109871Y9141D01*
X109807Y9113D01*
X109742Y9088D01*
X109676Y9067D01*
X109608Y9049D01*
X109540Y9036D01*
X109471Y9026D01*
X109402Y9020D01*
X109332Y9018D01*
X109233Y9020D01*
X109135Y9025D01*
X109037Y9035D01*
X108939Y9048D01*
X108842Y9064D01*
X108745Y9084D01*
X108650Y9108D01*
X108555Y9136D01*
X108461Y9167D01*
X108369Y9201D01*
X108278Y9239D01*
X108188Y9280D01*
X108100Y9325D01*
X108014Y9373D01*
X107930Y9424D01*
X107848Y9478D01*
X107767Y9536D01*
X107689Y9596D01*
X107614Y9659D01*
X107540Y9725D01*
X107470Y9794D01*
X107624Y13364D02*
X107626Y13434D01*
X107632Y13503D01*
X107642Y13572D01*
X107655Y13640D01*
X107673Y13708D01*
X107694Y13774D01*
X107719Y13839D01*
X107747Y13903D01*
X107779Y13965D01*
X107814Y14025D01*
X107853Y14083D01*
X107895Y14138D01*
X107940Y14192D01*
X107988Y14242D01*
X108038Y14290D01*
X108092Y14335D01*
X108147Y14377D01*
X108205Y14416D01*
X108265Y14451D01*
X108327Y14483D01*
X108391Y14511D01*
X108456Y14536D01*
X108522Y14557D01*
X108590Y14575D01*
X108658Y14588D01*
X108727Y14598D01*
X108796Y14604D01*
X108866Y14606D01*
X108960Y14604D01*
X109053Y14598D01*
X109146Y14589D01*
X109239Y14576D01*
X109331Y14559D01*
X109422Y14539D01*
X109513Y14514D01*
X109602Y14487D01*
X109690Y14455D01*
X109777Y14420D01*
X109863Y14382D01*
X109946Y14340D01*
X110028Y14295D01*
X110109Y14247D01*
X110187Y14195D01*
X110263Y14140D01*
X108245Y12278D02*
X108186Y12314D01*
X108130Y12354D01*
X108076Y12397D01*
X108024Y12442D01*
X107975Y12491D01*
X107929Y12542D01*
X107886Y12595D01*
X107845Y12651D01*
X107808Y12709D01*
X107773Y12769D01*
X107743Y12830D01*
X107715Y12893D01*
X107691Y12958D01*
X107671Y13024D01*
X107654Y13091D01*
X107641Y13158D01*
X107632Y13226D01*
X107626Y13295D01*
X107624Y13364D01*
X109952Y11346D02*
X110011Y11310D01*
X110067Y11270D01*
X110121Y11227D01*
X110173Y11182D01*
X110222Y11133D01*
X110268Y11082D01*
X110311Y11029D01*
X110352Y10973D01*
X110389Y10915D01*
X110424Y10855D01*
X110454Y10794D01*
X110482Y10731D01*
X110506Y10666D01*
X110526Y10600D01*
X110543Y10533D01*
X110556Y10466D01*
X110565Y10398D01*
X110571Y10329D01*
X110573Y10260D01*
X109953Y11346D02*
X108245Y12278D01*
X112534Y8397D02*
X115018Y8397D01*
X117162Y10570D02*
X117162Y13054D01*
X117164Y13131D01*
X117170Y13209D01*
X117179Y13285D01*
X117193Y13362D01*
X117210Y13437D01*
X117231Y13511D01*
X117256Y13585D01*
X117284Y13657D01*
X117316Y13727D01*
X117351Y13796D01*
X117390Y13863D01*
X117432Y13928D01*
X117477Y13991D01*
X117525Y14052D01*
X117576Y14110D01*
X117630Y14165D01*
X117687Y14218D01*
X117746Y14267D01*
X117808Y14314D01*
X117872Y14358D01*
X117938Y14398D01*
X118006Y14435D01*
X118076Y14469D01*
X118147Y14499D01*
X118220Y14525D01*
X118294Y14548D01*
X118369Y14567D01*
X118444Y14582D01*
X118521Y14594D01*
X118598Y14602D01*
X118675Y14606D01*
X118753Y14606D01*
X118830Y14602D01*
X118907Y14594D01*
X118984Y14582D01*
X119059Y14567D01*
X119134Y14548D01*
X119208Y14525D01*
X119281Y14499D01*
X119352Y14469D01*
X119422Y14435D01*
X119490Y14398D01*
X119556Y14358D01*
X119620Y14314D01*
X119682Y14267D01*
X119741Y14218D01*
X119798Y14165D01*
X119852Y14110D01*
X119903Y14052D01*
X119951Y13991D01*
X119996Y13928D01*
X120038Y13863D01*
X120077Y13796D01*
X120112Y13727D01*
X120144Y13657D01*
X120172Y13585D01*
X120197Y13511D01*
X120218Y13437D01*
X120235Y13362D01*
X120249Y13285D01*
X120258Y13209D01*
X120264Y13131D01*
X120266Y13054D01*
X120266Y10570D01*
X120264Y10493D01*
X120258Y10415D01*
X120249Y10339D01*
X120235Y10262D01*
X120218Y10187D01*
X120197Y10113D01*
X120172Y10039D01*
X120144Y9967D01*
X120112Y9897D01*
X120077Y9828D01*
X120038Y9761D01*
X119996Y9696D01*
X119951Y9633D01*
X119903Y9572D01*
X119852Y9514D01*
X119798Y9459D01*
X119741Y9406D01*
X119682Y9357D01*
X119620Y9310D01*
X119556Y9266D01*
X119490Y9226D01*
X119422Y9189D01*
X119352Y9155D01*
X119281Y9125D01*
X119208Y9099D01*
X119134Y9076D01*
X119059Y9057D01*
X118984Y9042D01*
X118907Y9030D01*
X118830Y9022D01*
X118753Y9018D01*
X118675Y9018D01*
X118598Y9022D01*
X118521Y9030D01*
X118444Y9042D01*
X118369Y9057D01*
X118294Y9076D01*
X118220Y9099D01*
X118147Y9125D01*
X118076Y9155D01*
X118006Y9189D01*
X117938Y9226D01*
X117872Y9266D01*
X117808Y9310D01*
X117746Y9357D01*
X117687Y9406D01*
X117630Y9459D01*
X117576Y9514D01*
X117525Y9572D01*
X117477Y9633D01*
X117432Y9696D01*
X117390Y9761D01*
X117351Y9828D01*
X117316Y9897D01*
X117284Y9967D01*
X117256Y10039D01*
X117231Y10113D01*
X117210Y10187D01*
X117193Y10262D01*
X117179Y10339D01*
X117170Y10415D01*
X117164Y10493D01*
X117162Y10570D01*
M02*
