G04 EAGLE Gerber RS-274X export*
G75*
%MOMM*%
%FSLAX34Y34*%
%LPD*%
%INTop Copper*%
%IPPOS*%
%AMOC8*
5,1,8,0,0,1.08239X$1,22.5*%
G01*
%ADD10R,1.800000X1.600000*%
%ADD11R,1.600000X1.800000*%
%ADD12R,2.540000X1.270000*%
%ADD13R,1.600000X1.803000*%
%ADD14C,0.150000*%
%ADD15C,0.203200*%

G36*
X171562Y10169D02*
X171562Y10169D01*
X171620Y10167D01*
X171702Y10189D01*
X171786Y10201D01*
X171839Y10224D01*
X171895Y10239D01*
X171968Y10282D01*
X172045Y10317D01*
X172090Y10355D01*
X172140Y10384D01*
X172198Y10446D01*
X172262Y10500D01*
X172294Y10549D01*
X172334Y10592D01*
X172373Y10667D01*
X172420Y10737D01*
X172437Y10793D01*
X172464Y10845D01*
X172475Y10913D01*
X172505Y11008D01*
X172508Y11108D01*
X172519Y11176D01*
X172519Y23004D01*
X172511Y23062D01*
X172513Y23120D01*
X172491Y23202D01*
X172479Y23286D01*
X172456Y23339D01*
X172441Y23395D01*
X172398Y23468D01*
X172363Y23545D01*
X172325Y23590D01*
X172296Y23640D01*
X172234Y23698D01*
X172180Y23762D01*
X172131Y23794D01*
X172088Y23834D01*
X172013Y23873D01*
X171943Y23920D01*
X171887Y23937D01*
X171835Y23964D01*
X171767Y23975D01*
X171672Y24005D01*
X171572Y24008D01*
X171504Y24019D01*
X165891Y24019D01*
X165891Y34544D01*
X165883Y34599D01*
X165884Y34643D01*
X165884Y34645D01*
X165884Y34660D01*
X165863Y34742D01*
X165851Y34825D01*
X165827Y34879D01*
X165813Y34935D01*
X165770Y35008D01*
X165735Y35085D01*
X165697Y35129D01*
X165667Y35180D01*
X165606Y35237D01*
X165551Y35302D01*
X165503Y35334D01*
X165460Y35374D01*
X165385Y35413D01*
X165315Y35459D01*
X165259Y35477D01*
X165207Y35504D01*
X165139Y35515D01*
X165044Y35545D01*
X164944Y35548D01*
X164876Y35559D01*
X163859Y35559D01*
X163859Y35561D01*
X164876Y35561D01*
X164934Y35569D01*
X164992Y35568D01*
X165074Y35589D01*
X165157Y35601D01*
X165211Y35625D01*
X165267Y35639D01*
X165340Y35682D01*
X165417Y35717D01*
X165461Y35755D01*
X165512Y35785D01*
X165569Y35846D01*
X165634Y35901D01*
X165666Y35949D01*
X165706Y35992D01*
X165745Y36067D01*
X165791Y36137D01*
X165809Y36193D01*
X165836Y36245D01*
X165847Y36313D01*
X165877Y36408D01*
X165880Y36508D01*
X165891Y36576D01*
X165891Y47101D01*
X171504Y47101D01*
X171562Y47109D01*
X171620Y47107D01*
X171702Y47129D01*
X171786Y47141D01*
X171839Y47164D01*
X171895Y47179D01*
X171968Y47222D01*
X172045Y47257D01*
X172090Y47295D01*
X172140Y47324D01*
X172198Y47386D01*
X172262Y47440D01*
X172294Y47489D01*
X172334Y47532D01*
X172373Y47607D01*
X172420Y47677D01*
X172437Y47733D01*
X172464Y47785D01*
X172475Y47853D01*
X172505Y47948D01*
X172508Y48048D01*
X172519Y48116D01*
X172519Y48389D01*
X172511Y48447D01*
X172513Y48505D01*
X172491Y48587D01*
X172479Y48671D01*
X172456Y48724D01*
X172441Y48780D01*
X172398Y48853D01*
X172363Y48930D01*
X172325Y48975D01*
X172296Y49025D01*
X172234Y49083D01*
X172180Y49147D01*
X172131Y49179D01*
X172088Y49219D01*
X172013Y49258D01*
X171943Y49305D01*
X171887Y49322D01*
X171835Y49349D01*
X171767Y49360D01*
X171672Y49390D01*
X171572Y49393D01*
X171504Y49404D01*
X166111Y49404D01*
X166111Y59944D01*
X166104Y59996D01*
X166104Y60024D01*
X166104Y60028D01*
X166104Y60060D01*
X166083Y60142D01*
X166071Y60225D01*
X166047Y60279D01*
X166033Y60335D01*
X165990Y60408D01*
X165955Y60485D01*
X165917Y60529D01*
X165887Y60580D01*
X165826Y60637D01*
X165771Y60702D01*
X165723Y60734D01*
X165680Y60774D01*
X165605Y60813D01*
X165535Y60859D01*
X165479Y60877D01*
X165427Y60904D01*
X165359Y60915D01*
X165264Y60945D01*
X165164Y60948D01*
X165096Y60959D01*
X164079Y60959D01*
X164079Y60961D01*
X165096Y60961D01*
X165154Y60969D01*
X165212Y60968D01*
X165294Y60989D01*
X165377Y61001D01*
X165431Y61025D01*
X165487Y61039D01*
X165560Y61082D01*
X165637Y61117D01*
X165681Y61155D01*
X165732Y61185D01*
X165789Y61246D01*
X165854Y61301D01*
X165886Y61349D01*
X165926Y61392D01*
X165965Y61467D01*
X166011Y61537D01*
X166029Y61593D01*
X166056Y61645D01*
X166067Y61713D01*
X166097Y61808D01*
X166100Y61908D01*
X166111Y61976D01*
X166111Y72516D01*
X171504Y72516D01*
X171562Y72524D01*
X171620Y72522D01*
X171702Y72544D01*
X171786Y72556D01*
X171839Y72579D01*
X171895Y72594D01*
X171968Y72637D01*
X172045Y72672D01*
X172090Y72710D01*
X172140Y72739D01*
X172198Y72801D01*
X172262Y72855D01*
X172294Y72904D01*
X172334Y72947D01*
X172373Y73022D01*
X172420Y73092D01*
X172437Y73148D01*
X172464Y73200D01*
X172475Y73268D01*
X172505Y73363D01*
X172508Y73463D01*
X172519Y73531D01*
X172519Y120144D01*
X172511Y120202D01*
X172513Y120260D01*
X172491Y120342D01*
X172479Y120426D01*
X172456Y120479D01*
X172441Y120535D01*
X172398Y120608D01*
X172363Y120685D01*
X172325Y120730D01*
X172296Y120780D01*
X172234Y120838D01*
X172180Y120902D01*
X172131Y120934D01*
X172088Y120974D01*
X172013Y121013D01*
X171943Y121060D01*
X171887Y121077D01*
X171835Y121104D01*
X171767Y121115D01*
X171672Y121145D01*
X171572Y121148D01*
X171504Y121159D01*
X11176Y121159D01*
X11118Y121151D01*
X11060Y121153D01*
X10978Y121131D01*
X10894Y121119D01*
X10841Y121096D01*
X10785Y121081D01*
X10712Y121038D01*
X10635Y121003D01*
X10590Y120965D01*
X10540Y120936D01*
X10482Y120874D01*
X10418Y120820D01*
X10386Y120771D01*
X10346Y120728D01*
X10307Y120653D01*
X10260Y120583D01*
X10243Y120527D01*
X10216Y120475D01*
X10205Y120407D01*
X10175Y120312D01*
X10172Y120212D01*
X10161Y120144D01*
X10161Y97318D01*
X10165Y97289D01*
X10162Y97260D01*
X10185Y97149D01*
X10201Y97037D01*
X10213Y97010D01*
X10218Y96981D01*
X10271Y96880D01*
X10317Y96777D01*
X10336Y96755D01*
X10349Y96729D01*
X10427Y96647D01*
X10500Y96560D01*
X10525Y96544D01*
X10545Y96523D01*
X10643Y96465D01*
X10737Y96403D01*
X10765Y96394D01*
X10790Y96379D01*
X10900Y96351D01*
X11008Y96317D01*
X11038Y96316D01*
X11066Y96309D01*
X11179Y96312D01*
X11292Y96309D01*
X11321Y96317D01*
X11350Y96318D01*
X11458Y96353D01*
X11567Y96381D01*
X11593Y96396D01*
X11621Y96405D01*
X11685Y96451D01*
X11812Y96527D01*
X11855Y96572D01*
X11894Y96600D01*
X12068Y96775D01*
X38732Y96775D01*
X39625Y95882D01*
X39625Y81918D01*
X38518Y80811D01*
X38482Y80765D01*
X38440Y80724D01*
X38397Y80651D01*
X38347Y80584D01*
X38326Y80529D01*
X38296Y80479D01*
X38276Y80397D01*
X38245Y80318D01*
X38241Y80260D01*
X38226Y80204D01*
X38229Y80119D01*
X38222Y80035D01*
X38233Y79978D01*
X38235Y79919D01*
X38261Y79839D01*
X38278Y79756D01*
X38305Y79704D01*
X38323Y79649D01*
X38363Y79593D01*
X38409Y79504D01*
X38478Y79432D01*
X38518Y79376D01*
X45761Y72132D01*
X45831Y72080D01*
X45895Y72020D01*
X45944Y71994D01*
X45988Y71961D01*
X46070Y71930D01*
X46148Y71890D01*
X46195Y71882D01*
X46254Y71860D01*
X46402Y71848D01*
X46479Y71835D01*
X66622Y71835D01*
X67955Y70502D01*
X67955Y64118D01*
X66622Y62785D01*
X46538Y62785D01*
X45205Y64118D01*
X45205Y65081D01*
X45193Y65168D01*
X45190Y65255D01*
X45173Y65308D01*
X45165Y65363D01*
X45130Y65442D01*
X45103Y65526D01*
X45075Y65565D01*
X45049Y65622D01*
X44953Y65735D01*
X44908Y65799D01*
X44152Y66555D01*
X37658Y73049D01*
X37634Y73067D01*
X37615Y73089D01*
X37521Y73152D01*
X37431Y73220D01*
X37403Y73230D01*
X37379Y73247D01*
X37271Y73281D01*
X37165Y73321D01*
X37136Y73324D01*
X37108Y73332D01*
X36994Y73335D01*
X36882Y73345D01*
X36853Y73339D01*
X36824Y73340D01*
X36714Y73311D01*
X36603Y73289D01*
X36577Y73275D01*
X36549Y73268D01*
X36451Y73210D01*
X36351Y73158D01*
X36329Y73138D01*
X36304Y73123D01*
X36227Y73040D01*
X36145Y72962D01*
X36130Y72937D01*
X36110Y72915D01*
X36058Y72814D01*
X36001Y72717D01*
X35994Y72688D01*
X35980Y72662D01*
X35967Y72585D01*
X35931Y72441D01*
X35933Y72379D01*
X35925Y72331D01*
X35925Y67149D01*
X35937Y67062D01*
X35940Y66975D01*
X35957Y66922D01*
X35965Y66867D01*
X36000Y66788D01*
X36027Y66704D01*
X36055Y66665D01*
X36081Y66608D01*
X36177Y66495D01*
X36222Y66431D01*
X44310Y58343D01*
X44357Y58308D01*
X44397Y58265D01*
X44470Y58223D01*
X44537Y58172D01*
X44592Y58151D01*
X44642Y58122D01*
X44724Y58101D01*
X44803Y58071D01*
X44861Y58066D01*
X44918Y58052D01*
X45002Y58054D01*
X45086Y58047D01*
X45144Y58059D01*
X45202Y58061D01*
X45282Y58087D01*
X45365Y58103D01*
X45417Y58130D01*
X45473Y58148D01*
X45529Y58188D01*
X45617Y58234D01*
X45690Y58303D01*
X45746Y58343D01*
X46538Y59135D01*
X66622Y59135D01*
X67955Y57802D01*
X67955Y51418D01*
X66622Y50085D01*
X46538Y50085D01*
X46121Y50502D01*
X46051Y50554D01*
X45987Y50614D01*
X45938Y50640D01*
X45894Y50673D01*
X45812Y50704D01*
X45734Y50744D01*
X45687Y50752D01*
X45628Y50774D01*
X45481Y50786D01*
X45403Y50799D01*
X44668Y50799D01*
X42882Y52585D01*
X37658Y57809D01*
X37634Y57827D01*
X37615Y57849D01*
X37521Y57912D01*
X37431Y57980D01*
X37403Y57990D01*
X37379Y58007D01*
X37271Y58041D01*
X37165Y58081D01*
X37136Y58084D01*
X37108Y58092D01*
X36994Y58095D01*
X36882Y58105D01*
X36853Y58099D01*
X36824Y58100D01*
X36714Y58071D01*
X36603Y58049D01*
X36577Y58035D01*
X36549Y58028D01*
X36451Y57970D01*
X36351Y57918D01*
X36329Y57898D01*
X36304Y57883D01*
X36227Y57800D01*
X36145Y57722D01*
X36130Y57697D01*
X36110Y57675D01*
X36058Y57574D01*
X36001Y57477D01*
X35994Y57448D01*
X35980Y57422D01*
X35967Y57345D01*
X35931Y57201D01*
X35933Y57139D01*
X35925Y57091D01*
X35925Y56168D01*
X35032Y55275D01*
X15768Y55275D01*
X14875Y56168D01*
X14875Y73432D01*
X15768Y74325D01*
X33931Y74325D01*
X33960Y74329D01*
X33989Y74326D01*
X34100Y74349D01*
X34213Y74365D01*
X34239Y74377D01*
X34268Y74382D01*
X34369Y74434D01*
X34472Y74481D01*
X34494Y74500D01*
X34520Y74513D01*
X34602Y74591D01*
X34689Y74664D01*
X34705Y74689D01*
X34727Y74709D01*
X34784Y74807D01*
X34847Y74901D01*
X34855Y74929D01*
X34870Y74954D01*
X34898Y75064D01*
X34932Y75172D01*
X34933Y75202D01*
X34940Y75230D01*
X34937Y75343D01*
X34940Y75456D01*
X34932Y75485D01*
X34931Y75514D01*
X34896Y75622D01*
X34868Y75731D01*
X34853Y75757D01*
X34844Y75785D01*
X34798Y75848D01*
X34723Y75976D01*
X34677Y76019D01*
X34649Y76058D01*
X29979Y80728D01*
X29909Y80780D01*
X29845Y80840D01*
X29796Y80866D01*
X29752Y80899D01*
X29670Y80930D01*
X29592Y80970D01*
X29545Y80978D01*
X29486Y81000D01*
X29338Y81012D01*
X29261Y81025D01*
X12068Y81025D01*
X11894Y81200D01*
X11870Y81217D01*
X11851Y81240D01*
X11757Y81303D01*
X11667Y81371D01*
X11639Y81381D01*
X11615Y81397D01*
X11507Y81432D01*
X11401Y81472D01*
X11372Y81474D01*
X11344Y81483D01*
X11231Y81486D01*
X11118Y81496D01*
X11089Y81490D01*
X11060Y81491D01*
X10950Y81462D01*
X10839Y81440D01*
X10813Y81426D01*
X10785Y81419D01*
X10687Y81361D01*
X10587Y81309D01*
X10565Y81288D01*
X10540Y81273D01*
X10463Y81191D01*
X10381Y81113D01*
X10366Y81088D01*
X10346Y81066D01*
X10294Y80965D01*
X10237Y80868D01*
X10230Y80839D01*
X10216Y80813D01*
X10203Y80736D01*
X10167Y80592D01*
X10169Y80530D01*
X10161Y80482D01*
X10161Y23658D01*
X10165Y23629D01*
X10162Y23600D01*
X10185Y23489D01*
X10201Y23377D01*
X10213Y23350D01*
X10218Y23321D01*
X10271Y23220D01*
X10317Y23117D01*
X10336Y23095D01*
X10349Y23069D01*
X10427Y22987D01*
X10500Y22900D01*
X10525Y22884D01*
X10545Y22863D01*
X10643Y22805D01*
X10737Y22743D01*
X10765Y22734D01*
X10790Y22719D01*
X10900Y22691D01*
X11008Y22657D01*
X11038Y22656D01*
X11066Y22649D01*
X11179Y22652D01*
X11292Y22649D01*
X11321Y22657D01*
X11350Y22658D01*
X11458Y22693D01*
X11567Y22721D01*
X11593Y22736D01*
X11621Y22745D01*
X11685Y22791D01*
X11812Y22867D01*
X11855Y22912D01*
X11894Y22940D01*
X12068Y23115D01*
X21844Y23115D01*
X21902Y23123D01*
X21960Y23121D01*
X22042Y23143D01*
X22126Y23155D01*
X22179Y23178D01*
X22235Y23193D01*
X22308Y23236D01*
X22385Y23271D01*
X22430Y23309D01*
X22480Y23338D01*
X22538Y23400D01*
X22602Y23454D01*
X22634Y23503D01*
X22674Y23546D01*
X22713Y23621D01*
X22760Y23691D01*
X22777Y23747D01*
X22804Y23799D01*
X22815Y23867D01*
X22845Y23962D01*
X22848Y24062D01*
X22859Y24130D01*
X22859Y26260D01*
X22851Y26318D01*
X22853Y26376D01*
X22831Y26458D01*
X22819Y26542D01*
X22796Y26595D01*
X22781Y26651D01*
X22738Y26724D01*
X22703Y26801D01*
X22665Y26846D01*
X22636Y26896D01*
X22574Y26954D01*
X22520Y27018D01*
X22471Y27050D01*
X22428Y27090D01*
X22353Y27129D01*
X22283Y27176D01*
X22227Y27193D01*
X22175Y27220D01*
X22107Y27231D01*
X22012Y27261D01*
X21912Y27264D01*
X21844Y27275D01*
X15768Y27275D01*
X14875Y28168D01*
X14875Y45432D01*
X15768Y46325D01*
X35032Y46325D01*
X35925Y45432D01*
X35925Y28168D01*
X35032Y27275D01*
X28956Y27275D01*
X28898Y27267D01*
X28840Y27269D01*
X28758Y27247D01*
X28674Y27235D01*
X28621Y27212D01*
X28565Y27197D01*
X28492Y27154D01*
X28415Y27119D01*
X28370Y27081D01*
X28320Y27052D01*
X28262Y26990D01*
X28198Y26936D01*
X28166Y26887D01*
X28126Y26844D01*
X28087Y26769D01*
X28040Y26699D01*
X28023Y26643D01*
X27996Y26591D01*
X27985Y26523D01*
X27955Y26428D01*
X27952Y26328D01*
X27941Y26260D01*
X27941Y24130D01*
X27949Y24072D01*
X27947Y24014D01*
X27969Y23932D01*
X27981Y23848D01*
X28004Y23795D01*
X28019Y23739D01*
X28062Y23666D01*
X28097Y23589D01*
X28135Y23544D01*
X28164Y23494D01*
X28226Y23436D01*
X28280Y23372D01*
X28329Y23340D01*
X28372Y23300D01*
X28447Y23261D01*
X28517Y23214D01*
X28573Y23197D01*
X28625Y23170D01*
X28693Y23159D01*
X28788Y23129D01*
X28888Y23126D01*
X28956Y23115D01*
X38732Y23115D01*
X39625Y22222D01*
X39625Y11176D01*
X39633Y11118D01*
X39631Y11060D01*
X39653Y10978D01*
X39665Y10894D01*
X39688Y10841D01*
X39703Y10785D01*
X39746Y10712D01*
X39781Y10635D01*
X39819Y10590D01*
X39848Y10540D01*
X39910Y10482D01*
X39964Y10418D01*
X40013Y10386D01*
X40056Y10346D01*
X40131Y10307D01*
X40201Y10260D01*
X40257Y10243D01*
X40309Y10216D01*
X40377Y10205D01*
X40472Y10175D01*
X40572Y10172D01*
X40640Y10161D01*
X171504Y10161D01*
X171562Y10169D01*
G37*
%LPC*%
G36*
X95938Y24685D02*
X95938Y24685D01*
X94605Y26018D01*
X94605Y32402D01*
X95938Y33735D01*
X108111Y33735D01*
X108140Y33739D01*
X108169Y33736D01*
X108280Y33759D01*
X108393Y33775D01*
X108419Y33787D01*
X108448Y33792D01*
X108549Y33845D01*
X108652Y33891D01*
X108674Y33910D01*
X108700Y33923D01*
X108783Y34001D01*
X108869Y34074D01*
X108885Y34099D01*
X108907Y34119D01*
X108964Y34217D01*
X109027Y34311D01*
X109035Y34339D01*
X109050Y34364D01*
X109078Y34474D01*
X109112Y34582D01*
X109113Y34612D01*
X109120Y34640D01*
X109117Y34753D01*
X109120Y34866D01*
X109112Y34895D01*
X109111Y34924D01*
X109076Y35032D01*
X109048Y35141D01*
X109033Y35167D01*
X109024Y35195D01*
X108978Y35259D01*
X108903Y35386D01*
X108857Y35429D01*
X108829Y35468D01*
X107209Y37088D01*
X107139Y37140D01*
X107075Y37200D01*
X107026Y37226D01*
X106982Y37259D01*
X106900Y37290D01*
X106822Y37330D01*
X106775Y37338D01*
X106716Y37360D01*
X106568Y37372D01*
X106491Y37385D01*
X95938Y37385D01*
X94605Y38718D01*
X94605Y45102D01*
X95938Y46435D01*
X116022Y46435D01*
X117355Y45102D01*
X117355Y39116D01*
X117363Y39058D01*
X117361Y39000D01*
X117383Y38918D01*
X117395Y38834D01*
X117418Y38781D01*
X117433Y38725D01*
X117476Y38652D01*
X117511Y38575D01*
X117549Y38530D01*
X117578Y38480D01*
X117640Y38422D01*
X117694Y38358D01*
X117743Y38326D01*
X117786Y38286D01*
X117861Y38247D01*
X117931Y38200D01*
X117987Y38183D01*
X118039Y38156D01*
X118107Y38145D01*
X118202Y38115D01*
X118302Y38112D01*
X118370Y38101D01*
X125320Y38101D01*
X125378Y38109D01*
X125436Y38107D01*
X125518Y38129D01*
X125602Y38141D01*
X125655Y38164D01*
X125711Y38179D01*
X125784Y38222D01*
X125861Y38257D01*
X125906Y38295D01*
X125956Y38324D01*
X126014Y38386D01*
X126078Y38440D01*
X126110Y38489D01*
X126150Y38532D01*
X126189Y38607D01*
X126236Y38677D01*
X126253Y38733D01*
X126280Y38785D01*
X126291Y38853D01*
X126321Y38948D01*
X126324Y39048D01*
X126335Y39116D01*
X126335Y45192D01*
X127228Y46085D01*
X132084Y46085D01*
X132142Y46093D01*
X132200Y46091D01*
X132282Y46113D01*
X132366Y46125D01*
X132419Y46148D01*
X132475Y46163D01*
X132548Y46206D01*
X132625Y46241D01*
X132670Y46279D01*
X132720Y46308D01*
X132778Y46370D01*
X132842Y46424D01*
X132874Y46473D01*
X132914Y46516D01*
X132953Y46591D01*
X133000Y46661D01*
X133017Y46717D01*
X133044Y46769D01*
X133055Y46837D01*
X133085Y46932D01*
X133088Y47032D01*
X133099Y47100D01*
X133099Y49405D01*
X133091Y49463D01*
X133093Y49521D01*
X133071Y49603D01*
X133059Y49687D01*
X133036Y49740D01*
X133021Y49796D01*
X132978Y49869D01*
X132943Y49946D01*
X132905Y49991D01*
X132876Y50041D01*
X132814Y50099D01*
X132760Y50163D01*
X132711Y50195D01*
X132668Y50235D01*
X132593Y50274D01*
X132523Y50321D01*
X132467Y50338D01*
X132415Y50365D01*
X132347Y50376D01*
X132252Y50406D01*
X132152Y50409D01*
X132084Y50420D01*
X127008Y50420D01*
X126115Y51313D01*
X126115Y70607D01*
X127008Y71500D01*
X144272Y71500D01*
X145165Y70607D01*
X145165Y51313D01*
X144272Y50420D01*
X139196Y50420D01*
X139138Y50412D01*
X139080Y50414D01*
X138998Y50392D01*
X138914Y50380D01*
X138861Y50357D01*
X138805Y50342D01*
X138732Y50299D01*
X138655Y50264D01*
X138610Y50226D01*
X138560Y50197D01*
X138502Y50135D01*
X138438Y50081D01*
X138406Y50032D01*
X138366Y49989D01*
X138327Y49914D01*
X138280Y49844D01*
X138263Y49788D01*
X138236Y49736D01*
X138225Y49668D01*
X138195Y49573D01*
X138192Y49473D01*
X138181Y49405D01*
X138181Y47100D01*
X138189Y47042D01*
X138187Y46984D01*
X138209Y46902D01*
X138221Y46818D01*
X138244Y46765D01*
X138259Y46709D01*
X138302Y46636D01*
X138337Y46559D01*
X138375Y46514D01*
X138404Y46464D01*
X138466Y46406D01*
X138520Y46342D01*
X138569Y46310D01*
X138612Y46270D01*
X138687Y46231D01*
X138757Y46184D01*
X138813Y46167D01*
X138865Y46140D01*
X138933Y46129D01*
X139028Y46099D01*
X139128Y46096D01*
X139196Y46085D01*
X144492Y46085D01*
X145385Y45192D01*
X145385Y25928D01*
X144492Y25035D01*
X127228Y25035D01*
X126335Y25928D01*
X126335Y32004D01*
X126327Y32062D01*
X126329Y32120D01*
X126307Y32202D01*
X126295Y32286D01*
X126272Y32339D01*
X126257Y32395D01*
X126214Y32468D01*
X126179Y32545D01*
X126141Y32590D01*
X126112Y32640D01*
X126050Y32698D01*
X125996Y32762D01*
X125947Y32794D01*
X125904Y32834D01*
X125829Y32873D01*
X125759Y32920D01*
X125703Y32937D01*
X125651Y32964D01*
X125583Y32975D01*
X125488Y33005D01*
X125388Y33008D01*
X125320Y33019D01*
X118370Y33019D01*
X118312Y33011D01*
X118254Y33013D01*
X118172Y32991D01*
X118088Y32979D01*
X118035Y32956D01*
X117979Y32941D01*
X117906Y32898D01*
X117829Y32863D01*
X117784Y32825D01*
X117734Y32796D01*
X117676Y32734D01*
X117612Y32680D01*
X117580Y32631D01*
X117540Y32588D01*
X117501Y32513D01*
X117454Y32443D01*
X117437Y32387D01*
X117410Y32335D01*
X117399Y32267D01*
X117369Y32172D01*
X117366Y32072D01*
X117355Y32004D01*
X117355Y26018D01*
X116022Y24685D01*
X95938Y24685D01*
G37*
%LPD*%
%LPC*%
G36*
X95938Y62785D02*
X95938Y62785D01*
X94466Y64257D01*
X94449Y64295D01*
X94411Y64340D01*
X94382Y64390D01*
X94320Y64448D01*
X94266Y64512D01*
X94217Y64544D01*
X94174Y64584D01*
X94099Y64623D01*
X94029Y64670D01*
X93973Y64687D01*
X93921Y64714D01*
X93853Y64725D01*
X93758Y64755D01*
X93658Y64758D01*
X93590Y64769D01*
X87818Y64769D01*
X74509Y78078D01*
X74439Y78130D01*
X74375Y78190D01*
X74326Y78216D01*
X74282Y78249D01*
X74200Y78280D01*
X74122Y78320D01*
X74075Y78328D01*
X74016Y78350D01*
X73868Y78362D01*
X73791Y78375D01*
X58648Y78375D01*
X57755Y79268D01*
X57755Y95711D01*
X57743Y95798D01*
X57740Y95885D01*
X57723Y95938D01*
X57715Y95993D01*
X57680Y96072D01*
X57653Y96156D01*
X57625Y96195D01*
X57599Y96252D01*
X57503Y96365D01*
X57458Y96429D01*
X52839Y101048D01*
X52769Y101100D01*
X52705Y101160D01*
X52656Y101186D01*
X52612Y101219D01*
X52530Y101250D01*
X52452Y101290D01*
X52405Y101298D01*
X52346Y101320D01*
X52198Y101332D01*
X52121Y101345D01*
X34928Y101345D01*
X34035Y102238D01*
X34035Y116202D01*
X34928Y117095D01*
X61592Y117095D01*
X62485Y116202D01*
X62485Y102238D01*
X61404Y101158D01*
X61387Y101134D01*
X61364Y101115D01*
X61301Y101021D01*
X61233Y100931D01*
X61223Y100903D01*
X61207Y100879D01*
X61172Y100771D01*
X61132Y100665D01*
X61130Y100636D01*
X61121Y100608D01*
X61118Y100494D01*
X61108Y100382D01*
X61114Y100353D01*
X61113Y100324D01*
X61142Y100214D01*
X61164Y100103D01*
X61178Y100077D01*
X61185Y100049D01*
X61243Y99951D01*
X61295Y99851D01*
X61316Y99829D01*
X61331Y99804D01*
X61413Y99727D01*
X61491Y99645D01*
X61516Y99630D01*
X61538Y99610D01*
X61639Y99558D01*
X61736Y99501D01*
X61765Y99494D01*
X61791Y99480D01*
X61868Y99467D01*
X62012Y99431D01*
X62074Y99433D01*
X62122Y99425D01*
X75912Y99425D01*
X76805Y98532D01*
X76805Y83389D01*
X76817Y83302D01*
X76820Y83215D01*
X76837Y83162D01*
X76845Y83107D01*
X76880Y83028D01*
X76907Y82944D01*
X76935Y82905D01*
X76961Y82848D01*
X77057Y82735D01*
X77102Y82671D01*
X89625Y70148D01*
X89695Y70096D01*
X89759Y70036D01*
X89808Y70010D01*
X89852Y69977D01*
X89934Y69946D01*
X90012Y69906D01*
X90059Y69898D01*
X90118Y69876D01*
X90266Y69864D01*
X90343Y69851D01*
X93590Y69851D01*
X93648Y69859D01*
X93706Y69857D01*
X93788Y69879D01*
X93872Y69891D01*
X93925Y69914D01*
X93981Y69929D01*
X94054Y69972D01*
X94131Y70007D01*
X94176Y70045D01*
X94226Y70074D01*
X94284Y70136D01*
X94348Y70190D01*
X94380Y70239D01*
X94420Y70282D01*
X94458Y70355D01*
X95938Y71835D01*
X116022Y71835D01*
X117355Y70502D01*
X117355Y64118D01*
X116022Y62785D01*
X95938Y62785D01*
G37*
%LPD*%
%LPC*%
G36*
X95938Y50085D02*
X95938Y50085D01*
X94605Y51418D01*
X94605Y57802D01*
X95938Y59135D01*
X116022Y59135D01*
X117355Y57802D01*
X117355Y51418D01*
X116022Y50085D01*
X95938Y50085D01*
G37*
%LPD*%
%LPC*%
G36*
X46538Y37385D02*
X46538Y37385D01*
X45205Y38718D01*
X45205Y45102D01*
X46538Y46435D01*
X66622Y46435D01*
X67955Y45102D01*
X67955Y38718D01*
X66622Y37385D01*
X46538Y37385D01*
G37*
%LPD*%
%LPC*%
G36*
X97311Y90931D02*
X97311Y90931D01*
X97311Y100441D01*
X98310Y100441D01*
X98349Y100446D01*
X98388Y100444D01*
X98489Y100466D01*
X98592Y100481D01*
X98628Y100497D01*
X98666Y100505D01*
X98757Y100554D01*
X98851Y100597D01*
X98881Y100622D01*
X98916Y100641D01*
X98989Y100714D01*
X99068Y100780D01*
X99090Y100813D01*
X99118Y100841D01*
X99168Y100931D01*
X99226Y101017D01*
X99238Y101054D01*
X99257Y101089D01*
X99280Y101189D01*
X99312Y101288D01*
X99313Y101327D01*
X99322Y101365D01*
X99316Y101469D01*
X99319Y101572D01*
X99309Y101610D01*
X99307Y101649D01*
X99280Y101722D01*
X99247Y101847D01*
X99241Y101858D01*
X99059Y102536D01*
X99059Y107189D01*
X112269Y107189D01*
X112269Y100329D01*
X106570Y100329D01*
X106531Y100324D01*
X106492Y100326D01*
X106391Y100304D01*
X106288Y100289D01*
X106253Y100273D01*
X106214Y100265D01*
X106123Y100215D01*
X106029Y100173D01*
X105999Y100148D01*
X105964Y100129D01*
X105891Y100056D01*
X105812Y99990D01*
X105790Y99957D01*
X105762Y99929D01*
X105712Y99839D01*
X105654Y99753D01*
X105642Y99716D01*
X105623Y99681D01*
X105600Y99580D01*
X105568Y99482D01*
X105567Y99443D01*
X105558Y99405D01*
X105564Y99301D01*
X105561Y99198D01*
X105571Y99160D01*
X105573Y99121D01*
X105600Y99048D01*
X105633Y98923D01*
X105639Y98912D01*
X105821Y98234D01*
X105821Y90931D01*
X97311Y90931D01*
G37*
%LPD*%
%LPC*%
G36*
X116331Y111251D02*
X116331Y111251D01*
X116331Y118111D01*
X127334Y118111D01*
X127981Y117938D01*
X128560Y117603D01*
X129033Y117130D01*
X129368Y116551D01*
X129541Y115904D01*
X129541Y111251D01*
X116331Y111251D01*
G37*
%LPD*%
%LPC*%
G36*
X99059Y111251D02*
X99059Y111251D01*
X99059Y115904D01*
X99232Y116551D01*
X99567Y117130D01*
X100040Y117603D01*
X100619Y117938D01*
X101266Y118111D01*
X112269Y118111D01*
X112269Y111251D01*
X99059Y111251D01*
G37*
%LPD*%
%LPC*%
G36*
X116331Y107189D02*
X116331Y107189D01*
X129541Y107189D01*
X129541Y102536D01*
X129368Y101889D01*
X129033Y101310D01*
X128560Y100837D01*
X127981Y100502D01*
X127334Y100329D01*
X116331Y100329D01*
X116331Y107189D01*
G37*
%LPD*%
%LPC*%
G36*
X153539Y62991D02*
X153539Y62991D01*
X153539Y70309D01*
X153712Y70956D01*
X154047Y71535D01*
X154520Y72008D01*
X155099Y72343D01*
X155746Y72516D01*
X162049Y72516D01*
X162049Y62991D01*
X153539Y62991D01*
G37*
%LPD*%
%LPC*%
G36*
X155746Y49404D02*
X155746Y49404D01*
X155099Y49577D01*
X154520Y49912D01*
X154047Y50385D01*
X153712Y50964D01*
X153539Y51611D01*
X153539Y58929D01*
X162049Y58929D01*
X162049Y49404D01*
X155746Y49404D01*
G37*
%LPD*%
%LPC*%
G36*
X84739Y90931D02*
X84739Y90931D01*
X84739Y98234D01*
X84912Y98881D01*
X85247Y99460D01*
X85720Y99933D01*
X86299Y100268D01*
X86946Y100441D01*
X93249Y100441D01*
X93249Y90931D01*
X84739Y90931D01*
G37*
%LPD*%
%LPC*%
G36*
X153319Y37591D02*
X153319Y37591D01*
X153319Y44894D01*
X153492Y45541D01*
X153827Y46120D01*
X154300Y46593D01*
X154879Y46928D01*
X155526Y47101D01*
X161829Y47101D01*
X161829Y37591D01*
X153319Y37591D01*
G37*
%LPD*%
%LPC*%
G36*
X97311Y77359D02*
X97311Y77359D01*
X97311Y86869D01*
X105821Y86869D01*
X105821Y79565D01*
X105648Y78919D01*
X105313Y78340D01*
X104840Y77867D01*
X104261Y77532D01*
X103614Y77359D01*
X97311Y77359D01*
G37*
%LPD*%
%LPC*%
G36*
X86946Y77359D02*
X86946Y77359D01*
X86299Y77532D01*
X85720Y77867D01*
X85247Y78340D01*
X84912Y78919D01*
X84739Y79565D01*
X84739Y86869D01*
X93249Y86869D01*
X93249Y77359D01*
X86946Y77359D01*
G37*
%LPD*%
%LPC*%
G36*
X155526Y24019D02*
X155526Y24019D01*
X154879Y24192D01*
X154300Y24527D01*
X153827Y25000D01*
X153492Y25579D01*
X153319Y26226D01*
X153319Y33529D01*
X161829Y33529D01*
X161829Y24019D01*
X155526Y24019D01*
G37*
%LPD*%
%LPC*%
G36*
X58079Y30709D02*
X58079Y30709D01*
X58079Y34751D01*
X66113Y34751D01*
X66950Y34526D01*
X67701Y34093D01*
X68313Y33481D01*
X68746Y32730D01*
X68971Y31893D01*
X68971Y30709D01*
X58079Y30709D01*
G37*
%LPD*%
%LPC*%
G36*
X44189Y30709D02*
X44189Y30709D01*
X44189Y31893D01*
X44414Y32730D01*
X44847Y33481D01*
X45459Y34093D01*
X46210Y34526D01*
X47047Y34751D01*
X55081Y34751D01*
X55081Y30709D01*
X44189Y30709D01*
G37*
%LPD*%
%LPC*%
G36*
X58079Y23669D02*
X58079Y23669D01*
X58079Y27711D01*
X68971Y27711D01*
X68971Y26527D01*
X68746Y25690D01*
X68313Y24939D01*
X67701Y24327D01*
X66950Y23894D01*
X66113Y23669D01*
X58079Y23669D01*
G37*
%LPD*%
%LPC*%
G36*
X47047Y23669D02*
X47047Y23669D01*
X46210Y23894D01*
X45459Y24327D01*
X44847Y24939D01*
X44414Y25690D01*
X44189Y26527D01*
X44189Y27711D01*
X55081Y27711D01*
X55081Y23669D01*
X47047Y23669D01*
G37*
%LPD*%
%LPC*%
G36*
X114299Y109219D02*
X114299Y109219D01*
X114299Y109221D01*
X114301Y109221D01*
X114301Y109219D01*
X114299Y109219D01*
G37*
%LPD*%
%LPC*%
G36*
X95279Y88899D02*
X95279Y88899D01*
X95279Y88901D01*
X95281Y88901D01*
X95281Y88899D01*
X95279Y88899D01*
G37*
%LPD*%
D10*
X25400Y36800D03*
X25400Y64800D03*
D11*
X135860Y35560D03*
X163860Y35560D03*
X67280Y88900D03*
X95280Y88900D03*
D12*
X25400Y15240D03*
X25400Y88900D03*
X114300Y109220D03*
D13*
X135640Y60960D03*
X164080Y60960D03*
D14*
X65680Y65060D02*
X47480Y65060D01*
X47480Y69560D01*
X65680Y69560D01*
X65680Y65060D01*
X65680Y66485D02*
X47480Y66485D01*
X47480Y67910D02*
X65680Y67910D01*
X65680Y69335D02*
X47480Y69335D01*
X47480Y52360D02*
X65680Y52360D01*
X47480Y52360D02*
X47480Y56860D01*
X65680Y56860D01*
X65680Y52360D01*
X65680Y53785D02*
X47480Y53785D01*
X47480Y55210D02*
X65680Y55210D01*
X65680Y56635D02*
X47480Y56635D01*
X47480Y39660D02*
X65680Y39660D01*
X47480Y39660D02*
X47480Y44160D01*
X65680Y44160D01*
X65680Y39660D01*
X65680Y41085D02*
X47480Y41085D01*
X47480Y42510D02*
X65680Y42510D01*
X65680Y43935D02*
X47480Y43935D01*
X47480Y26960D02*
X65680Y26960D01*
X47480Y26960D02*
X47480Y31460D01*
X65680Y31460D01*
X65680Y26960D01*
X65680Y28385D02*
X47480Y28385D01*
X47480Y29810D02*
X65680Y29810D01*
X65680Y31235D02*
X47480Y31235D01*
X96880Y26960D02*
X115080Y26960D01*
X96880Y26960D02*
X96880Y31460D01*
X115080Y31460D01*
X115080Y26960D01*
X115080Y28385D02*
X96880Y28385D01*
X96880Y29810D02*
X115080Y29810D01*
X115080Y31235D02*
X96880Y31235D01*
X96880Y39660D02*
X115080Y39660D01*
X96880Y39660D02*
X96880Y44160D01*
X115080Y44160D01*
X115080Y39660D01*
X115080Y41085D02*
X96880Y41085D01*
X96880Y42510D02*
X115080Y42510D01*
X115080Y43935D02*
X96880Y43935D01*
X96880Y52360D02*
X115080Y52360D01*
X96880Y52360D02*
X96880Y56860D01*
X115080Y56860D01*
X115080Y52360D01*
X115080Y53785D02*
X96880Y53785D01*
X96880Y55210D02*
X115080Y55210D01*
X115080Y56635D02*
X96880Y56635D01*
X96880Y65060D02*
X115080Y65060D01*
X96880Y65060D02*
X96880Y69560D01*
X115080Y69560D01*
X115080Y65060D01*
X115080Y66485D02*
X96880Y66485D01*
X96880Y67910D02*
X115080Y67910D01*
X115080Y69335D02*
X96880Y69335D01*
D12*
X48260Y109220D03*
D15*
X135640Y60960D02*
X135640Y35780D01*
X135860Y35560D01*
X112330Y35560D01*
X105980Y41910D01*
X67280Y90200D02*
X48260Y109220D01*
X67280Y90200D02*
X67280Y88900D01*
X88870Y67310D01*
X105980Y67310D01*
X114300Y107920D02*
X114300Y109220D01*
X114300Y107920D02*
X95280Y88900D01*
X104790Y79390D01*
X156247Y60960D02*
X164080Y60960D01*
X144357Y72850D02*
X116443Y72850D01*
X144357Y72850D02*
X156247Y60960D01*
X164080Y60960D02*
X164080Y35780D01*
X163860Y35560D01*
X118370Y70923D02*
X116443Y72850D01*
X118370Y70923D02*
X118370Y63697D01*
X116443Y61770D01*
X111330Y72850D02*
X104790Y79390D01*
X111330Y72850D02*
X116443Y72850D01*
X67043Y36370D02*
X63740Y36370D01*
X56580Y29210D01*
X92443Y61770D02*
X116443Y61770D01*
X92443Y61770D02*
X67043Y36370D01*
X46990Y67310D02*
X25400Y88900D01*
X46990Y67310D02*
X56580Y67310D01*
X25400Y36800D02*
X25400Y15240D01*
X25400Y64800D02*
X34260Y64800D01*
X45720Y53340D01*
X55310Y53340D01*
X56580Y54610D01*
M02*
